{"title":"Oog Getuigen 01 Ducumentary Dutch Spoken Klam","uid":6232577,"size":1680522011,"categoryP":"video","categoryS":"movies","magnet":"?xt=urn:btih:145c3ae28ccf64fcf631efe8cc5ba9be3a697705&amp;dn=Oog+Getuigen+01+Ducumentary+Dutch+Spoken+Klam&amp;tr=udp%3A%2F%2Ftracker.openbittorrent.com%3A80&amp;tr=udp%3A%2F%2Fopen.demonii.com%3A1337&amp;tr=udp%3A%2F%2Ftracker.coppersurfer.tk%3A6969&amp;tr=udp%3A%2F%2Fexodus.desync.com%3A6969","seeders":0,"leechers":1,"uploader":"Klambake","files":-1,"time":1299757627,"description":"The first 4 parts of a 39 parts DVD collection, dutch Spoken.\n\nGeneral:\n\nComplete name                    : \\Ooggetuigen\\Apen.avi\nFormat                           : AVI\nFormat/Info                      : Audio Video Interleave\nFile size                        : 401 MiB\nDuration                         : 28mn 30s\nOverall bit rate                 : 1 968 Kbps\n\nVideo:\n\nFormat                           : MPEG-4 Visual\nFormat profile                   : Simple@L3\nFormat settings, BVOP            : No\nFormat settings, QPel            : No\nFormat settings, GMC             : No warppoints\nFormat settings, Matrix          : Default (H.263)\nCodec ID                         : XVID\nCodec ID/Hint                    : XviD\nDuration                         : 28mn 30s\nBit rate                         : 1 733 Kbps\nWidth                            : 640 pixels\nHeight                           : 480 pixels\nDisplay aspect ratio             : 4:3\nFrame rate                       : 25.000 fps\nColor space                      : YUV\nChroma subsampling               : 4:2:0\nBit depth                        : 8 bits\nScan type                        : Progressive\nBits/(Pixel*Frame)               : 0.226\nStream size                      : 353 MiB (88%)\nWriting library                  : XviD 1.1.2 (UTC 2006-11-01)\n\nAudio:\n\nFormat                           : AC-3\nFormat/Info                      : Audio Coding 3\nMode extension                   : CM (complete main)\nCodec ID                         : 2000\nDuration                         : 28mn 30s\nBit rate mode                    : Constant\nBit rate                         : 224 Kbps\nChannel(s)                       : 2 channels\nChannel positions                : Front: L R\nSampling rate                    : 48.0 KHz\nBit depth                        : 16 bits\nStream size                      : 45.7 MiB (11%)\nAlignment                        : Aligned on interleaves\nInterleave, duration             : 32 ms (0.80 video frame)","torrent":{"xt":"urn:btih:145c3ae28ccf64fcf631efe8cc5ba9be3a697705","amp;dn":"Oog+Getuigen+01+Ducumentary+Dutch+Spoken+Klam","amp;tr":["udp%3A%2F%2Ftracker.openbittorrent.com%3A80","udp%3A%2F%2Fopen.demonii.com%3A1337","udp%3A%2F%2Ftracker.coppersurfer.tk%3A6969","udp%3A%2F%2Fexodus.desync.com%3A6969"],"infoHash":"145c3ae28ccf64fcf631efe8cc5ba9be3a697705","infoHashBuffer":{"type":"Buffer","data":[20,92,58,226,140,207,100,252,246,49,239,232,204,91,169,190,58,105,119,5]},"announce":[],"urlList":[]}}